<?xml version="1.0" standalone="no"?>
<!DOCTYPE svg PUBLIC "-//W3C//DTD SVG 1.0//EN" "http://www.w3.org/TR/2001/REC-SVG-20010904/DTD/svg10.dtd">
<svg xmlns="http://www.w3.org/2000/svg" xmlns:xlink="http://www.w3.org/1999/xlink" id="body_1" width="20" height="15">

<g transform="matrix(0.029296875 0 0 0.029296875 2.5000005 -0)">
	<g transform="matrix(1 0 0 1 1 1)">
		<g>
			<g>
                <path d="M50.2 246.467L84.333 246.467L203.8 246.467L237.933 246.467C 243.053 246.467 246.466 243.054 246.466 237.93399L246.466 237.93399L246.466 50.2C 246.466 45.08 243.05301 41.667 237.933 41.667L237.933 41.667L50.2 41.667C 45.08 41.667 41.667 45.08 41.667 50.2L41.667 50.2L41.667 237.933C 41.667 243.053 45.08 246.467 50.2 246.467zM92.867 229.4L92.867 223.42699C 92.867 195.26698 113.347 172.22699 138.94699 169.66699C 142.35999 169.66699 145.77399 169.66699 149.187 169.66699C 174.787 172.22699 195.267 196.12 195.267 223.42699L195.267 223.42699L195.267 229.4L92.867 229.4zM144.067 152.6C 129.56 152.6 118.467 141.507 118.467 127.00001C 118.467 112.49301 129.56 101.40001 144.067 101.40001C 158.574 101.40001 169.667 112.49301 169.667 127.00001C 169.667 141.507 158.573 152.6 144.067 152.6zM58.733 58.733L229.4 58.733L229.4 229.4L211.48 229.4L211.48 223.42699C 211.48 195.14299 195.754 170.42299 172.527 159.008C 181.28299 151.243 186.73299 139.86699 186.73299 127C 186.73299 103.107 167.95999 84.333 144.06598 84.333C 120.17298 84.333 101.39898 103.106 101.39898 127C 101.39898 139.77701 106.76998 151.086 115.418976 158.847C 92.17998 170.191 75.79898 195.012 75.79898 223.427L75.79898 223.427L75.79898 229.40001L58.733 229.40001L58.733 58.733z" stroke="none" fill="#000000" fill-rule="nonzero" />
                <path d="M374.467 41.667L280.6 41.667C 275.48 41.667 272.06702 45.08 272.06702 50.2L272.06702 50.2L272.06702 84.333C 272.06702 89.453 275.48 92.866 280.6 92.866L280.6 92.866L374.467 92.866C 379.587 92.866 383 89.452995 383 84.333L383 84.333L383 50.2C 383 45.08 379.587 41.667 374.467 41.667zM365.933 75.8L289.133 75.8L289.133 58.733L365.93298 58.733L365.93298 75.8z" stroke="none" fill="#000000" fill-rule="nonzero" />
                <path d="M374.467 118.467L280.6 118.467C 275.48 118.467 272.06702 121.880005 272.06702 127L272.06702 127L272.06702 161.133C 272.06702 166.25299 275.48 169.666 280.6 169.666L280.6 169.666L374.467 169.666C 379.587 169.666 383 166.253 383 161.133L383 161.133L383 127C 383 121.88 379.587 118.467 374.467 118.467zM365.933 152.6L289.133 152.6L289.133 135.533L365.93298 135.533L365.93298 152.6z" stroke="none" fill="#000000" fill-rule="nonzero" />
                <path d="M374.467 195.267L280.6 195.267C 275.48 195.267 272.06702 198.68 272.06702 203.8L272.06702 203.8L272.06702 237.933C 272.06702 243.053 275.48 246.466 280.6 246.466L280.6 246.466L374.467 246.466C 379.587 246.466 383 243.05301 383 237.933L383 237.933L383 203.8C 383 198.68 379.587 195.267 374.467 195.267zM365.933 229.4L289.133 229.4L289.133 212.333L365.93298 212.333L365.93298 229.4z" stroke="none" fill="#000000" fill-rule="nonzero" />
                <path d="M374.467 272.067L50.2 272.067C 45.08 272.067 41.667 275.47998 41.667 280.59998C 41.667 285.71997 45.08 289.13297 50.2 289.13297L50.2 289.13297L374.467 289.13297C 379.587 289.13297 383 285.71997 383 280.59998C 383 275.47998 379.587 272.067 374.467 272.067z" stroke="none" fill="#000000" fill-rule="nonzero" />
                <path d="M186.733 314.733L50.2 314.733C 45.08 314.733 41.667 318.146 41.667 323.266C 41.667 328.386 45.08 331.8 50.2 331.8L50.2 331.8L186.733 331.8C 191.853 331.8 195.266 328.387 195.266 323.267C 195.266 318.147 191.853 314.733 186.733 314.733z" stroke="none" fill="#000000" fill-rule="nonzero" />
                <path d="M374.467 314.733L237.933 314.733C 232.813 314.733 229.4 318.146 229.4 323.266C 229.4 328.386 232.81299 331.79898 237.933 331.79898L237.933 331.79898L374.466 331.79898C 379.586 331.79898 382.999 328.386 382.999 323.266C 382.999 318.146 379.587 314.733 374.467 314.733z" stroke="none" fill="#000000" fill-rule="nonzero" />
                <path d="M186.733 357.4L50.2 357.4C 45.08 357.4 41.667 360.813 41.667 365.93298C 41.667 371.05298 45.08 374.46597 50.2 374.46597L50.2 374.46597L186.733 374.46597C 191.853 374.46597 195.266 371.05298 195.266 365.93298C 195.266 360.813 191.853 357.4 186.733 357.4z" stroke="none" fill="#000000" fill-rule="nonzero" />
                <path d="M374.467 357.4L237.933 357.4C 232.813 357.4 229.4 360.813 229.4 365.93298C 229.4 371.05298 232.81299 374.46597 237.933 374.46597L237.933 374.46597L374.466 374.46597C 379.586 374.46597 382.999 371.05298 382.999 365.93298C 382.999 360.813 379.587 357.4 374.467 357.4z" stroke="none" fill="#000000" fill-rule="nonzero" />
                <path d="M186.733 400.067L50.2 400.067C 45.08 400.067 41.667 403.47998 41.667 408.59998C 41.667 413.71997 45.08 417.13297 50.2 417.13297L50.2 417.13297L186.733 417.13297C 191.853 417.13297 195.266 413.71997 195.266 408.59998C 195.266 403.47998 191.853 400.067 186.733 400.067z" stroke="none" fill="#000000" fill-rule="nonzero" />
                <path d="M374.467 400.067L237.933 400.067C 232.813 400.067 229.4 403.47998 229.4 408.59998C 229.4 413.71997 232.81299 417.13297 237.933 417.13297L237.933 417.13297L374.466 417.13297C 379.586 417.13297 382.999 413.71997 382.999 408.59998C 382.999 403.47998 379.587 400.067 374.467 400.067z" stroke="none" fill="#000000" fill-rule="nonzero" />
                <path d="M186.733 442.733L50.2 442.733C 45.08 442.733 41.667 446.146 41.667 451.266C 41.667 456.386 45.08 459.79898 50.2 459.79898L50.2 459.79898L186.733 459.79898C 191.853 459.79898 195.266 456.386 195.266 451.266C 195.267 446.147 191.853 442.733 186.733 442.733z" stroke="none" fill="#000000" fill-rule="nonzero" />
                <path d="M374.467 442.733L237.933 442.733C 232.813 442.733 229.4 446.146 229.4 451.266C 229.4 456.386 232.81299 459.79898 237.933 459.79898L237.933 459.79898L374.466 459.79898C 379.586 459.79898 382.999 456.386 382.999 451.266C 383 446.147 379.587 442.733 374.467 442.733z" stroke="none" fill="#000000" fill-rule="nonzero" />
                <path d="M485.4 272.067L425.667 272.067L425.667 24.6C 425.667 10.093 414.574 -1 400.067 -1L400.067 -1L24.6 -1C 10.093 -1 -1 10.093 -1 24.6L-1 24.6L-1 485.4C -1 499.90698 10.093 511 24.6 511L24.6 511L459.80002 511C 487.96002 511 511.00003 487.96 511.00003 459.8L511.00003 459.8L511.00003 297.667C 511 283.16 499.907 272.067 485.4 272.067zM24.6 493.933C 20.333 493.933 16.067001 490.52002 16.067001 485.40002L16.067001 485.40002L16.067001 24.6C 16.067001 20.333 20.334002 16.067001 24.600002 16.067001L24.600002 16.067001L400.06702 16.067001C 404.334 16.067001 408.6 19.480001 408.6 24.600002L408.6 24.600002L408.6 280.6L408.6 459.8C 408.6 472.59998 412.867 484.547 421.4 493.93298L421.4 493.93298L24.6 493.93298zM493.933 459.8C 493.933 478.573 478.57303 493.93298 459.80002 493.93298C 441.027 493.93298 425.66702 478.573 425.66702 459.8L425.66702 459.8L425.66702 289.133L485.4 289.133C 489.667 289.133 493.93298 292.546 493.93298 297.666L493.93298 297.666L493.93298 459.8z" stroke="none" fill="#000000" fill-rule="nonzero" />
			</g>
		</g>
	</g>
	<g>
	</g>
	<g>
	</g>
	<g>
	</g>
	<g>
	</g>
	<g>
	</g>
	<g>
	</g>
	<g>
	</g>
	<g>
	</g>
	<g>
	</g>
	<g>
	</g>
	<g>
	</g>
	<g>
	</g>
	<g>
	</g>
	<g>
	</g>
	<g>
	</g>
</g>
</svg>